<?xml version="1.0" encoding="UTF-8" standalone="no"?>
<svg width="134px" height="120px" viewBox="0 0 134 120" version="1.1" xmlns="http://www.w3.org/2000/svg" xmlns:xlink="http://www.w3.org/1999/xlink">
    <!-- Generator: Sketch 45.2 (43514) - http://www.bohemiancoding.com/sketch -->
    <title>logo</title>
    <desc>Created with Sketch.</desc>
    <defs></defs>
    <g id="Page-1" stroke="none" stroke-width="1" fill="none" fill-rule="evenodd">
        <g id="logo" fill-rule="nonzero">
            <g id="noun_975338_cc" transform="translate(0.000000, 1.000000)" fill="#03ECCA">
                <g id="Group" transform="translate(0.000000, 0.341195)">
                    <path d="M30.2981969,0.192850944 C29.7917727,0.255031523 29.3801783,0.57237226 29.2574637,0.995259798 L21.0889369,26.6723378 C20.9718877,27.0430005 21.0964242,27.4386579 21.4154954,27.7098278 C21.7345667,27.9809977 22.1995267,28.0863372 22.6347102,27.9860481 C23.0698937,27.885759 23.408952,27.5951316 23.5237863,27.2239671 L31.6923131,1.54691589 C31.810632,1.19687964 31.7116623,0.819643164 31.4296476,0.545730398 C31.1476329,0.271817632 30.7213138,0.138856253 30.2981969,0.192850944 L30.2981969,0.192850944 Z M16.8279192,2.86754712 C16.5901607,2.89142791 16.3653599,2.97262438 16.1799665,3.10158304 L1.09960938,13.2654232 C0.793804441,13.4681558 0.614976478,13.7796681 0.614976478,14.1096375 C0.614976478,14.4396069 0.793804441,14.7511193 1.09960938,14.9538519 L16.1799665,25.1176974 C16.534232,25.3566844 17.0113604,25.416589 17.4315797,25.2748402 C17.8517991,25.1330915 18.1512502,24.8112305 18.2171063,24.4305277 C18.2829625,24.0498249 18.1052156,23.6681342 17.7508371,23.4292687 L3.92717634,14.1180093 L17.7508371,4.789985 C18.2168399,4.49977454 18.390643,3.97659262 18.1722045,3.52158518 C17.953766,3.06657775 17.3992833,2.79680407 16.8279192,2.86754712 L16.8279192,2.86754712 Z M35.6587612,2.86754712 C35.1423289,2.91085513 34.7102595,3.21992379 34.5711464,3.64554171 C34.4320333,4.07115964 34.614483,4.52580489 35.0304129,4.789985 L48.8540737,14.1180093 L35.0304129,23.4292687 C34.6760344,23.6681342 34.4982875,24.0498249 34.5641437,24.4305277 C34.6299998,24.8112305 34.9294509,25.1330915 35.3496703,25.2748402 C35.7698896,25.416589 36.247018,25.3566844 36.6012835,25.1176974 L51.6816406,14.9538519 C51.9874456,14.7511193 52.1662735,14.4396069 52.1662735,14.1096375 C52.1662735,13.7796681 51.9874456,13.4681558 51.6816406,13.2654232 L36.6012835,3.10158304 C36.3373747,2.91800691 35.9972125,2.83354187 35.6587612,2.86754712 L35.6587612,2.86754712 Z" id="Shape"></path>
                </g>
            </g>
            <g id="noun_856058_cc" transform="translate(21.628906, 0.000000)">
                <path d="M106.863523,76.3916 C105.689869,65.4970625 97.5367221,56.9030375 87.4233236,56.078725 L87.4233236,54.4830375 C87.4233236,50.7925375 84.6709255,47.7887125 81.2831451,47.7887125 L32.9760605,47.7887125 C29.5910547,47.7887125 26.8358819,50.791025 26.8358819,54.4830375 L26.8358819,57.4898875 C18.557878,57.131425 11.7920284,50.3387875 10.6266985,41.576875 C13.2195574,40.4349375 15.054952,37.66555 15.054952,34.4333375 L10.9610372,34.4333375 C10.9610372,36.2211125 9.62923163,37.6731125 7.98944604,37.6731125 C6.34966045,37.6731125 5.01785489,36.2211125 5.01785489,34.4333375 L0.925327402,34.4333375 C0.925327402,38.134425 3.33228848,41.232025 6.52862182,41.9686125 C7.88262413,53.0128875 16.4186654,61.6099375 26.8358819,61.971425 L26.8358819,87.2800875 C26.8358819,90.9721 29.5910547,93.975925 32.9760605,93.975925 L40.5049238,93.975925 L40.5049238,105.313625 C35.328917,106.364813 31.3945414,111.319763 31.3945414,117.263888 L31.3945414,119.496338 L53.7119955,119.496338 L53.7119955,117.263888 C53.7119955,111.31825 49.7776199,106.366325 44.5988385,105.313625 L44.5988385,93.975925 L69.6631416,93.975925 L69.6631416,105.313625 C64.4857475,106.364813 60.5499847,111.319763 60.5499847,117.263888 L60.5499847,119.496338 L82.8674388,119.496338 L82.8674388,117.263888 C82.8674388,111.31825 78.9344505,106.364813 73.7584437,105.313625 L73.7584437,93.975925 L81.2859197,93.975925 C84.6723128,93.975925 87.4260982,90.9736125 87.4260982,87.2800875 L87.4260982,60.5542125 C95.2934621,61.3528125 101.612602,67.98815 102.726602,76.44 C99.8784802,77.435225 97.8100197,80.345275 97.8100197,83.7771375 L101.902547,83.7771375 C101.902547,81.9893625 103.23574,80.5373625 104.875526,80.5373625 C106.515311,80.5373625 107.847117,81.9893625 107.847117,83.7771375 L111.941032,83.7771375 C111.938257,80.2832625 109.793495,77.3308625 106.863523,76.3916 Z M49.3142626,115.034463 L35.7881124,115.034463 C36.667659,111.871825 39.3673398,109.56375 42.5484129,109.56375 C45.7350352,109.56375 48.4361033,111.871825 49.3142626,115.034463 Z M78.4697059,115.034463 L64.944943,115.034463 C65.8244896,111.871825 68.5241704,109.56375 71.7094054,109.56375 C74.893253,109.56375 77.5929339,111.871825 78.4697059,115.034463 Z M83.3307962,87.2816 C83.3307962,88.5112625 82.4124052,89.51405 81.2831451,89.51405 L32.9760605,89.51405 C31.8481876,89.51405 30.9297967,88.512775 30.9297967,87.2816 L30.9297967,54.4830375 C30.9297967,53.253375 31.8481876,52.2521 32.9760605,52.2521 L81.2845324,52.2521 C82.4124052,52.2521 83.3321834,53.253375 83.3321834,54.4830375 L83.3321834,87.2816 L83.3307962,87.2816 Z" id="Shape" fill="#048975"></path>
                <path d="M48.2418817,35.1774875 C50.7404044,35.1774875 52.7727951,32.9601625 52.7727951,30.2346375 C52.7727951,27.5091125 50.7404044,25.2933 48.2418817,25.2933 C45.7433589,25.2933 43.7109682,27.5091125 43.7109682,30.2346375 C43.7109682,32.9601625 45.7447462,35.1774875 48.2418817,35.1774875 Z M48.2418817,29.7566875 C48.4832714,29.7566875 48.6802677,29.96995 48.6802677,30.233125 C48.6802677,30.499325 48.4832714,30.7141 48.2418817,30.7141 C48.0004919,30.7141 47.804883,30.499325 47.804883,30.233125 C47.804883,29.9714625 48.0004919,29.7566875 48.2418817,29.7566875 Z" id="Shape" fill="#03ECCA"></path>
                <path d="M65.5414809,35.1774875 C68.0400036,35.1774875 70.0723944,32.9601625 70.0723944,30.2346375 C70.0723944,27.5091125 68.0400036,25.2933 65.5414809,25.2933 C63.0429582,25.2933 61.0077928,27.5091125 61.0077928,30.2346375 C61.0077928,32.9601625 63.0429582,35.1774875 65.5414809,35.1774875 Z M65.5414809,29.7566875 C65.7828707,29.7566875 65.9784796,29.96995 65.9784796,30.233125 C65.9784796,30.499325 65.7814834,30.7141 65.5414809,30.7141 C65.3014784,30.7141 65.1030949,30.499325 65.1030949,30.233125 C65.1030949,29.9714625 65.3000911,29.7566875 65.5414809,29.7566875 Z" id="Shape" fill="#03ECCA"></path>
                <path d="M45.7586192,44.1042625 L68.9556199,44.1042625 C75.3510612,44.1042625 80.5534266,38.0966125 80.5534266,30.7141 C80.5534266,23.3315875 75.3510612,17.3239375 68.9556199,17.3239375 L58.7215266,17.3239375 L58.7215266,10.011 C60.332179,9.173075 61.4503407,7.3853 61.4503407,5.313175 C61.4503407,2.4439625 59.3083534,0.10715 56.6752629,0.10715 C54.0421723,0.10715 51.900185,2.44245 51.900185,5.313175 C51.900185,7.3853 53.0197341,9.1745875 54.6303864,10.011 L54.6303864,17.32545 L45.7600065,17.32545 C39.3645652,17.32545 34.1621998,23.3331 34.1621998,30.7156125 C34.1608125,38.098125 39.363178,44.1042625 45.7586192,44.1042625 Z M56.6752629,4.569025 C57.0512205,4.569025 57.3578132,4.9032875 57.3578132,5.313175 C57.3578132,5.7230625 57.0512205,6.057325 56.6752629,6.057325 C56.2993053,6.057325 55.9927125,5.7230625 55.9927125,5.313175 C55.9913252,4.9032875 56.2993053,4.569025 56.6752629,4.569025 Z M45.7586192,21.7888375 L68.9556199,21.7888375 C73.0925409,21.7888375 76.4595119,25.7909125 76.4595119,30.7156125 C76.4595119,35.6372875 73.0925409,39.640875 68.9556199,39.640875 L45.7586192,39.640875 C41.6216982,39.640875 38.25334,35.6372875 38.25334,30.7156125 C38.25334,25.7909125 41.6216982,21.7888375 45.7586192,21.7888375 Z" id="Shape" fill="#E29A5B"></path>
                <path d="M45.7586192,61.9563 L40.300991,61.9563 C36.9145979,61.9563 34.1608125,64.9586125 34.1608125,68.650625 L34.1608125,74.603825 C34.1608125,78.2928125 36.9145979,81.29815 40.300991,81.29815 L45.7586192,81.29815 C49.143625,81.29815 51.8987977,78.294325 51.8987977,74.603825 L51.8987977,68.650625 C51.8987977,64.9586125 49.143625,61.9563 45.7586192,61.9563 Z M47.804883,74.6023125 C47.804883,75.831975 46.8851047,76.83325 45.7572319,76.83325 L40.300991,76.83325 C39.1717309,76.83325 38.25334,75.8334875 38.25334,74.6023125 L38.25334,68.650625 C38.25334,67.4209625 39.1717309,66.4196875 40.300991,66.4196875 L45.7586192,66.4196875 C46.886492,66.4196875 47.8062703,67.41945 47.8062703,68.650625 L47.8062703,74.6023125 L47.804883,74.6023125 Z" id="Shape" fill="#C6F180"></path>
                <rect id="Rectangle-path" fill="#23326E" x="60.7691777" y="64.9329" width="16.3742718" height="4.461875"></rect>
                <rect id="Rectangle-path" fill="#23326E" x="60.7691777" y="72.371375" width="16.3742718" height="4.461875"></rect>
                <rect id="Rectangle-path" fill="#23326E" x="60.7691777" y="79.80985" width="16.3742718" height="4.461875"></rect>
            </g>
        </g>
    </g>
</svg>